<svg width="28" height="25" viewBox="0 0 28 25" fill="none" xmlns="http://www.w3.org/2000/svg">
<g clip-path="url(#clip0_803_157)">
<path d="M19.0466 3.93608L23.3139 8.20336C23.4937 8.38313 23.4937 8.67645 23.3139 8.85622L12.9816 19.1885L8.59132 19.6758C8.00469 19.742 7.50795 19.2453 7.57418 18.6587L8.06146 14.2684L18.3938 3.93608C18.5735 3.75631 18.8668 3.75631 19.0466 3.93608ZM26.7107 2.8527L24.402 0.544023C23.6829 -0.175075 22.5144 -0.175075 21.7905 0.544023L20.1158 2.21876C19.936 2.39854 19.936 2.69185 20.1158 2.87163L24.3831 7.1389C24.5629 7.31868 24.8562 7.31868 25.0359 7.1389L26.7107 5.46416C27.4298 4.74033 27.4298 3.5718 26.7107 2.8527ZM18.1667 16.3784V21.1944H3.02778V6.05553H13.8994C14.0508 6.05553 14.1927 5.99402 14.3015 5.88994L16.1939 3.99758C16.5534 3.63803 16.298 3.02775 15.7918 3.02775H2.27083C1.01714 3.02775 0 4.04489 0 5.29858V21.9514C0 23.2051 1.01714 24.2222 2.27083 24.2222H18.9236C20.1773 24.2222 21.1945 23.2051 21.1945 21.9514V14.486C21.1945 13.9798 20.5842 13.7291 20.2246 14.0839L18.3323 15.9762C18.2282 16.085 18.1667 16.227 18.1667 16.3784Z" fill="#674286"/>
</g>
<defs>
<clipPath id="clip0_803_157">
<rect width="27.25" height="24.2222" fill="white"/>
</clipPath>
</defs>
</svg>
