<svg width="32" height="22" viewBox="0 0 32 22" fill="none" xmlns="http://www.w3.org/2000/svg">
<path d="M21 11C21 12.3261 20.4732 13.5979 19.5355 14.5355C18.5979 15.4732 17.3261 16 16 16C14.6739 16 13.4021 15.4732 12.4645 14.5355C11.5268 13.5979 11 12.3261 11 11C11 9.67392 11.5268 8.40215 12.4645 7.46447C13.4021 6.52678 14.6739 6 16 6C17.3261 6 18.5979 6.52678 19.5355 7.46447C20.4732 8.40215 21 9.67392 21 11Z" fill="#674286"/>
<path d="M0 11C0 11 6 0 16 0C26 0 32 11 32 11C32 11 26 22 16 22C6 22 0 11 0 11ZM16 18C17.8565 18 19.637 17.2625 20.9497 15.9497C22.2625 14.637 23 12.8565 23 11C23 9.14348 22.2625 7.36301 20.9497 6.05025C19.637 4.7375 17.8565 4 16 4C14.1435 4 12.363 4.7375 11.0503 6.05025C9.7375 7.36301 9 9.14348 9 11C9 12.8565 9.7375 14.637 11.0503 15.9497C12.363 17.2625 14.1435 18 16 18Z" fill="#674286"/>
</svg>
